<svg xmlns="http://www.w3.org/2000/svg" width="160" height="147.794" viewBox="0 0 160 147.794"><defs><style>.a{fill:rgba(0,121,214,0.17);}.b{fill:#e4f3fd;}.c{fill:#fff;}.d{fill:#e2a33d;}.e{fill:#c68c38;}.f{fill:#ffc943;}.g{fill:#fcd78d;}.h{fill:#262736;opacity:0.5;}.i{fill:#005b80;}</style></defs><g transform="translate(-493.786 -476.327)"><g transform="translate(498.117 488.372)"><circle class="a" cx="67.875" cy="67.875" r="67.875" transform="translate(0 0)"/></g><circle class="b" cx="5.375" cy="5.375" r="5.375" transform="translate(498.388 500.238) rotate(-41.32)"/><path class="b" d="M550.618,827.962a2.688,2.688,0,1,1-2.687-2.688A2.688,2.688,0,0,1,550.618,827.962Z" transform="translate(-41.957 -218.247)"/><path class="b" d="M879.49,610.882a2.688,2.688,0,1,1-2.688-2.688A2.687,2.687,0,0,1,879.49,610.882Z" transform="translate(-240.736 -87.038)"/><path class="c" d="M564.207,721.442a2.688,2.688,0,1,1-2.687-2.688A2.688,2.688,0,0,1,564.207,721.442Z" transform="translate(-50.17 -153.863)"/><path class="b" d="M537.551,583.92a1.7,1.7,0,1,1-1.7-1.7A1.7,1.7,0,0,1,537.551,583.92Z" transform="translate(-35.251 -71.338)"/><path class="b" d="M884.312,766.237a1.7,1.7,0,1,1-1.7-1.7A1.7,1.7,0,0,1,884.312,766.237Z" transform="translate(-244.842 -181.535)"/><path class="c" d="M819.5,608.087a1.7,1.7,0,1,1-1.7-1.7A1.7,1.7,0,0,1,819.5,608.087Z" transform="translate(-205.666 -85.945)"/><g transform="translate(493.786 508.235)"><path class="d" d="M526.827,667.042l28.506,17.88L537.445,713.43a11.825,11.825,0,0,0-1.8,6.182,11.62,11.62,0,0,1-1.336-3.354l-12.357-53.984a11.513,11.513,0,0,1-.291-2.336A11.792,11.792,0,0,0,526.827,667.042Z" transform="translate(-521.49 -626.548)"/><path class="d" d="M783.978,595.5l12.357,53.984a11.518,11.518,0,0,1,.253,3.586,11.714,11.714,0,0,0-4.306-4.769l-28.5-17.89,17.882-28.5a11.79,11.79,0,0,0,1.56-8.644A11.475,11.475,0,0,1,783.978,595.5Z" transform="translate(-667.833 -586.25)"/><path class="e" d="M555.185,699.76a11.791,11.791,0,0,1,1.56-8.644l35.52-56.608a11.89,11.89,0,0,1,16.357-3.744l56.616,35.518a10.107,10.107,0,0,1-4.046,18.985l-92.545,21.184A11.9,11.9,0,0,1,555.185,699.76Z" transform="translate(-541.607 -607.822)"/><path class="f" d="M671.612,709.818a11.9,11.9,0,0,1-9.173,10.63l-92.545,21.184a8.138,8.138,0,0,1-11.081-11.748L576.7,701.376l28.11,17.638a11.89,11.89,0,0,0,16.357-3.744l17.638-28.11,28.5,17.889A11.713,11.713,0,0,1,671.612,709.818Z" transform="translate(-542.858 -643.002)"/><path class="f" d="M634.892,689.308l-28.11-17.638,17.638-28.11a11.9,11.9,0,0,1,16.357-3.745l28.11,17.638-17.638,28.11A11.89,11.89,0,0,1,634.892,689.308Z" transform="translate(-572.938 -613.296)"/><path class="e" d="M636.882,582.584a11.793,11.793,0,0,1-1.56,8.644L599.8,647.836a11.89,11.89,0,0,1-16.357,3.744l-56.616-35.518a10.107,10.107,0,0,1,4.046-18.985l92.545-21.184A11.9,11.9,0,0,1,636.882,582.584Z" transform="translate(-521.488 -575.569)"/><path class="f" d="M636.445,581.78a10.4,10.4,0,0,1-1.709,7.995l-36.388,52.814a12.659,12.659,0,0,1-16.357,3.744l-55.747-31.723a10.4,10.4,0,0,1-5.017-6.455c-.045-5.091,3.8-9.838,9.387-11.116l92.545-21.184C628.741,574.576,634.271,577.176,636.445,581.78Z" transform="translate(-521.226 -575.53)"/><circle class="g" cx="5.215" cy="5.215" r="5.215" transform="matrix(0.816, -0.578, 0.578, 0.816, 89.298, 66.028)"/><circle class="g" cx="5.215" cy="5.215" r="5.215" transform="matrix(0.816, -0.578, 0.578, 0.816, 88.353, 19.471)"/><circle class="g" cx="2.162" cy="2.162" r="2.162" transform="matrix(0.996, -0.087, 0.087, 0.996, 105.82, 69.114)"/></g><circle class="c" cx="4.84" cy="4.84" r="4.84" transform="translate(563.868 615.458) rotate(-76.646)"/><circle class="c" cx="4.84" cy="4.84" r="4.84" transform="translate(543.647 496.421)"/><circle class="c" cx="3.264" cy="3.264" r="3.264" transform="matrix(0.866, -0.5, 0.5, 0.866, 582.998, 603.37)"/><path class="c" d="M626.732,583.472a2.786,2.786,0,1,1-2.786-2.786A2.786,2.786,0,0,1,626.732,583.472Z" transform="translate(-87.843 -70.412)"/><g transform="translate(567.439 476.327)"><g transform="translate(0.438 3.048)"><circle class="h" cx="30.596" cy="30.596" r="30.596" transform="matrix(0.408, -0.913, 0.913, 0.408, 0, 55.869)"/></g><g transform="translate(0 0)"><circle class="i" cx="30.528" cy="30.528" r="30.528" transform="translate(0 43.173) rotate(-45)"/><g transform="translate(31.663 20.636)"><path class="b" d="M793.352,588.961l10.457-1.662s2.6-.785,2.549,3.561-.51,15.511-.51,15.511-.275,5.094,4.24,2.115,2.441,1.13,1.671,1.934a11.989,11.989,0,0,1-11.855,3.588,5.242,5.242,0,0,1-3.64-4.968c0-3.9.278-15.118.278-15.118a2.061,2.061,0,0,0-2.186-2.349C791.952,591.655,791.3,589.286,793.352,588.961Z" transform="translate(-790.283 -571.339)"/><circle class="b" cx="6.334" cy="6.334" r="6.334" transform="translate(0 6.862) rotate(-32.796)"/></g></g></g></g></svg>