<svg xmlns="http://www.w3.org/2000/svg" width="160" height="147.403" viewBox="0 0 160 147.403"><defs><style>.a{fill:rgba(0,121,214,0.17);}.b{fill:#e4f3fd;}.c{fill:#fff;}.d{fill:#e2a33d;}.e{fill:#c68c38;}.f{fill:#ffc943;}.g{fill:#fcd78d;}.h{fill:#262736;opacity:0.5;}.i{fill:#04c330;}</style></defs><g transform="translate(-103.251 -98.383)"><g transform="translate(107.645 108.067)"><circle class="a" cx="68.86" cy="68.86" r="68.86" transform="translate(0 0)"/></g><circle class="b" cx="5.453" cy="5.453" r="5.453" transform="matrix(0.925, -0.38, 0.38, 0.925, 108.501, 117.624)"/><circle class="b" cx="2.727" cy="2.727" r="2.727" transform="translate(112.89 228.444)"/><path class="b" d="M461.593,208.116a2.727,2.727,0,1,1-2.727-2.727A2.727,2.727,0,0,1,461.593,208.116Z" transform="translate(-211.269 -64.062)"/><path class="c" d="M146.31,318.677a2.727,2.727,0,1,1-2.727-2.727A2.727,2.727,0,0,1,146.31,318.677Z" transform="translate(-22.514 -130.254)"/><path class="b" d="M119.625,181.14a1.726,1.726,0,1,1-1.726-1.726A1.726,1.726,0,0,1,119.625,181.14Z" transform="translate(-7.736 -48.512)"/><path class="b" d="M466.386,363.457a1.726,1.726,0,1,1-1.726-1.726A1.726,1.726,0,0,1,466.386,363.457Z" transform="translate(-215.336 -157.662)"/><path class="c" d="M401.57,205.307a1.726,1.726,0,1,1-1.726-1.726A1.726,1.726,0,0,1,401.57,205.307Z" transform="translate(-176.532 -62.98)"/><g transform="translate(103.251 128.218)"><path class="d" d="M108.927,264.341l28.92,18.139L119.7,311.4a11.993,11.993,0,0,0-1.825,6.272,11.775,11.775,0,0,1-1.356-3.4L103.982,259.5a11.674,11.674,0,0,1-.3-2.37A11.964,11.964,0,0,0,108.927,264.341Z" transform="translate(-103.512 -223.259)"/><path class="d" d="M366.3,192.723l12.537,54.768a11.68,11.68,0,0,1,.256,3.638,11.883,11.883,0,0,0-4.368-4.838l-28.914-18.149,18.141-28.912a11.961,11.961,0,0,0,1.583-8.769A11.639,11.639,0,0,1,366.3,192.723Z" transform="translate(-248.465 -183.343)"/><path class="e" d="M137.214,297.983a11.963,11.963,0,0,1,1.582-8.769l36.036-57.43a12.062,12.062,0,0,1,16.594-3.8l57.438,36.033a10.253,10.253,0,0,1-4.105,19.26l-93.888,21.491A12.074,12.074,0,0,1,137.214,297.983Z" transform="translate(-123.438 -204.71)"/><path class="f" d="M255.3,307.342a12.073,12.073,0,0,1-9.306,10.784l-93.888,21.491a12.084,12.084,0,0,1-13.067-5.646,11.993,11.993,0,0,1,1.825-6.272l18.148-28.922,28.518,17.894a12.062,12.062,0,0,0,16.594-3.8l17.894-28.518L250.933,302.5A11.883,11.883,0,0,1,255.3,307.342Z" transform="translate(-124.677 -239.556)"/><path class="f" d="M217.325,287.248l-28.518-17.894L206.7,240.836a12.077,12.077,0,0,1,16.595-3.8l28.518,17.894L233.919,283.45A12.062,12.062,0,0,1,217.325,287.248Z" transform="translate(-154.472 -210.133)"/><path class="e" d="M220.579,179.881A11.964,11.964,0,0,1,219,188.65l-36.035,57.43a12.063,12.063,0,0,1-16.595,3.8l-57.438-36.033a11.961,11.961,0,0,1-5.24-7.208,12.074,12.074,0,0,1,9.345-12.053l93.888-21.491A12.074,12.074,0,0,1,220.579,179.881Z" transform="translate(-103.511 -172.764)"/><path class="f" d="M220.142,179.066a10.552,10.552,0,0,1-1.733,8.111l-36.917,53.581a12.843,12.843,0,0,1-16.595,3.8l-56.556-32.184a10.553,10.553,0,0,1-5.089-6.549c-.046-5.165,3.858-9.98,9.523-11.277l93.888-21.491C212.327,171.758,217.936,174.4,220.142,179.066Z" transform="translate(-103.251 -172.725)"/><circle class="g" cx="5.291" cy="5.291" r="5.291" transform="translate(91.072 65.346) rotate(-22.217)"/><circle class="g" cx="5.291" cy="5.291" r="5.291" transform="translate(90.85 25.256) rotate(-79.572)"/><path class="g" d="M375.561,349.548a2.194,2.194,0,1,1-1.75-2.562A2.193,2.193,0,0,1,375.561,349.548Z" transform="translate(-263.675 -277.029)"/></g><g transform="translate(180.363 98.383)"><circle class="h" cx="29.305" cy="29.305" r="29.305" transform="matrix(0.336, -0.942, 0.942, 0.336, 1.849, 59.491)"/><circle class="i" cx="29.305" cy="29.305" r="29.305" transform="translate(0 41.444) rotate(-45)"/><g transform="translate(26.094 26.814)"><path class="c" d="M375.379,193.127a4.428,4.428,0,0,1-3.206-.6l-9.667-6.054a4.447,4.447,0,0,1,4.721-7.538l5.963,3.734,10.05-15.45a4.447,4.447,0,0,1,7.456,4.85l-12.434,19.114A4.437,4.437,0,0,1,375.379,193.127Z" transform="translate(-360.419 -165.198)"/></g></g><circle class="c" cx="4.91" cy="4.91" r="4.91" transform="translate(175.352 228.444)"/><circle class="c" cx="4.91" cy="4.91" r="4.91" transform="translate(153.837 116.233)"/><circle class="c" cx="3.311" cy="3.311" r="3.311" transform="translate(194.317 228.437) rotate(-77.16)"/><circle class="c" cx="2.826" cy="2.826" r="2.826" transform="translate(143.356 130.287)"/></g></svg>